<svg xmlns="http://www.w3.org/2000/svg" xmlns:xlink="http://www.w3.org/1999/xlink" width="321" zoomAndPan="magnify" viewBox="0 0 240.75 74.999997" height="100" preserveAspectRatio="xMidYMid meet" version="1.0"><defs><clipPath id="eabc764f3e"><path d="M 0 0.0390625 L 45 0.0390625 L 45 4 L 0 4 Z M 0 0.0390625 " clip-rule="nonzero"/></clipPath><clipPath id="3c6a801b6b"><path d="M 35 0.0390625 L 98 0.0390625 L 98 74.960938 L 35 74.960938 Z M 35 0.0390625 " clip-rule="nonzero"/></clipPath><clipPath id="cfeb645f8e"><path d="M 115 1 L 119 1 L 119 74.960938 L 115 74.960938 Z M 115 1 " clip-rule="nonzero"/></clipPath><clipPath id="507859aab6"><path d="M 132 23 L 203 23 L 203 74.960938 L 132 74.960938 Z M 132 23 " clip-rule="nonzero"/></clipPath><clipPath id="2d84a59006"><path d="M 134 0.0390625 L 204 0.0390625 L 204 44 L 134 44 Z M 134 0.0390625 " clip-rule="nonzero"/></clipPath><clipPath id="c05d8545e8"><path d="M 207 0.0390625 L 240.5 0.0390625 L 240.5 4 L 207 4 Z M 207 0.0390625 " clip-rule="nonzero"/></clipPath><clipPath id="7238d497f9"><path d="M 207 30 L 240.5 30 L 240.5 35 L 207 35 Z M 207 30 " clip-rule="nonzero"/></clipPath><clipPath id="78eaa58e5c"><path d="M 207 68 L 240.5 68 L 240.5 72 L 207 72 Z M 207 68 " clip-rule="nonzero"/></clipPath></defs><g clip-path="url(#eabc764f3e)"><path stroke-linecap="round" transform="matrix(0.749222, 0, 0, 0.749222, -0.000000000000021294, 0.0388979)" fill="none" stroke-linejoin="miter" d="M 2.502596 2.497602 L 56.668162 2.497602 " stroke="#000000" stroke-width="5" stroke-opacity="1" stroke-miterlimit="4"/></g><path stroke-linecap="round" transform="matrix(0.749222, 0, 0, 0.749222, -0.000000000000021294, 29.978479)" fill="none" stroke-linejoin="miter" d="M 2.502596 2.500038 L 56.668162 2.500038 " stroke="#000000" stroke-width="5" stroke-opacity="1" stroke-miterlimit="4"/><path stroke-linecap="round" transform="matrix(0, 0.749222, -0.749222, 0, 3.741564, 30.865917)" fill="none" stroke-linejoin="miter" d="M 2.499078 2.501764 L 52.405016 2.501764 " stroke="#000000" stroke-width="5" stroke-opacity="1" stroke-miterlimit="4"/><g clip-path="url(#3c6a801b6b)"><path stroke-linecap="butt" transform="matrix(-0.192298, 0.724124, -0.724124, -0.192298, 77.997605, 2.393937)" fill="none" stroke-linejoin="miter" d="M 0.00105317 2.499438 L 99.517838 2.499229 " stroke="#000000" stroke-width="5" stroke-opacity="1" stroke-miterlimit="4"/></g><path stroke-linecap="butt" transform="matrix(-0.749222, -0.00000000130764, 0.00000000130764, -0.749222, 87.516749, 45.22505)" fill="none" stroke-linejoin="miter" d="M 0.00150032 2.500577 L 31.695838 2.500577 " stroke="#000000" stroke-width="5" stroke-opacity="1" stroke-miterlimit="4"/><g clip-path="url(#cfeb645f8e)"><path stroke-linecap="round" transform="matrix(0, 0.749222, -0.749222, 0, 118.763877, 1.913553)" fill="none" stroke-linejoin="miter" d="M 2.498062 2.500263 L 94.364196 2.500263 " stroke="#000000" stroke-width="5" stroke-opacity="1" stroke-miterlimit="4"/></g><g clip-path="url(#507859aab6)"><path stroke-linecap="round" transform="matrix(0.529445, 0.530114, -0.530114, 0.529445, 153.82121, 41.809463)" fill="none" stroke-linejoin="miter" d="M 2.499474 2.498013 L 54.146077 2.498594 " stroke="#000000" stroke-width="5" stroke-opacity="1" stroke-miterlimit="4"/></g><path stroke-linecap="round" transform="matrix(-0.598036, 0.451317, -0.451317, -0.598036, 184.637807, 23.237588)" fill="none" stroke-linejoin="miter" d="M 2.498965 2.498714 L 49.794063 2.500939 " stroke="#000000" stroke-width="5" stroke-opacity="1" stroke-miterlimit="4"/><g clip-path="url(#2d84a59006)"><path stroke-linecap="round" transform="matrix(-0.625679, -0.41214, 0.41214, -0.625679, 183.228785, 24.7934)" fill="none" stroke-linejoin="miter" d="M 2.499314 2.499867 L 45.434101 2.500134 " stroke="#000000" stroke-width="5" stroke-opacity="1" stroke-miterlimit="4"/></g><g clip-path="url(#c05d8545e8)"><path stroke-linecap="round" transform="matrix(0.749222, 0, 0, 0.749222, 207.483471, 0.0388979)" fill="none" stroke-linejoin="miter" d="M 2.498589 2.497602 L 40.908226 2.497602 " stroke="#8600bd" stroke-width="5" stroke-opacity="1" stroke-miterlimit="4"/></g><g clip-path="url(#7238d497f9)"><path stroke-linecap="round" transform="matrix(0.749222, 0, 0, 0.749222, 207.483471, 30.968639)" fill="none" stroke-linejoin="miter" d="M 2.498589 2.497531 L 40.908226 2.497531 " stroke="#8600bd" stroke-width="5" stroke-opacity="1" stroke-miterlimit="4"/></g><g clip-path="url(#78eaa58e5c)"><path stroke-linecap="round" transform="matrix(0.749222, 0, 0, 0.749222, 207.483471, 68.142347)" fill="none" stroke-linejoin="miter" d="M 2.498589 2.500298 L 40.908226 2.500298 " stroke="#8600bd" stroke-width="5" stroke-opacity="1" stroke-miterlimit="4"/></g></svg>